# xmcd CD database file
#
# Track frame offsets:
#	150
#	18205
#	44425
#	62467
#
# Disc length: 1170 seconds
#
# Revision: 2
# Processed by: cddbd v1.5.2PL0 Copyright (c) Steve Scherf et al.
# Submitted via: CDex 1.60beta1-cs1
#
DISCID=27049004
DTITLE=スチャダラバー+木村カエラ - Hey! Hey! Alright
DYEAR=2009
DGENRE=Hip Hop/Rap
TTITLE0=Hey! Hey! Alright
TTITLE1=Good Old Future
TTITLE2=Hey! Hey! Alright -Instrumental-
TTITLE3=Good Old Future -Instrumental-
EXTD=YEAR: 2009
EXTT0=
EXTT1=
EXTT2=
EXTT3=
PLAYORDER=
